<svg version="1.0" xmlns="http://www.w3.org/2000/svg"
     width="20.000000pt" height="20.000000pt" viewBox="0 0 20.000000 20.000000"
     preserveAspectRatio="xMidYMid meet">

    <title>Rvve</title>
    <desc>Rvve_logo_FCK_IT</desc>

    <g transform="translate(0.000000,20.000000) scale(0.001111,-0.001111)"
       fill="currentColor" stroke="none">

        <path d="M8035 17029 c-99 -5 -207 -13 -240 -18 -33 -6 -111 -15 -173 -21
-164 -15 -632 -86 -727 -109 -64 -16 -114 -28 -215 -50 -167 -36 -344 -80
-365 -90 -34 -16 -118 -41 -137 -41 -11 0 -38 -8 -61 -19 -23 -10 -58 -22 -77
-26 -19 -4 -46 -13 -60 -20 -14 -7 -51 -18 -82 -25 -32 -7 -58 -17 -58 -22 0
-4 -7 -8 -16 -8 -8 0 -59 -17 -112 -39 -53 -21 -124 -49 -157 -61 -59 -23
-161 -67 -219 -96 -16 -8 -35 -14 -43 -14 -7 0 -13 -4 -13 -10 0 -5 -7 -10
-15 -10 -14 0 -71 -22 -110 -43 -28 -15 -84 -41 -122 -58 -18 -8 -33 -17 -33
-20 0 -4 -12 -10 -26 -13 -14 -4 -42 -17 -62 -30 -20 -12 -67 -37 -104 -56
-38 -18 -68 -37 -68 -42 0 -4 -9 -8 -19 -8 -11 0 -21 -4 -23 -9 -1 -5 -32 -23
-68 -41 -36 -18 -79 -43 -97 -56 -17 -13 -35 -24 -40 -24 -5 0 -26 -12 -48
-27 -22 -15 -53 -35 -70 -43 -58 -30 -80 -45 -88 -57 -4 -7 -17 -13 -27 -13
-11 0 -20 -4 -20 -9 0 -5 -55 -44 -121 -87 -67 -44 -130 -87 -140 -96 -11 -10
-24 -18 -29 -18 -5 0 -10 -4 -10 -9 0 -5 -8 -12 -17 -15 -10 -3 -29 -16 -43
-28 -14 -13 -52 -43 -85 -68 -33 -25 -65 -49 -71 -55 -6 -5 -37 -28 -69 -50
-32 -22 -83 -64 -113 -92 -30 -29 -59 -53 -64 -53 -6 0 -17 -9 -26 -19 -10
-11 -57 -54 -107 -96 -49 -42 -115 -97 -145 -123 -71 -61 -603 -595 -655 -657
-22 -27 -58 -69 -80 -93 -22 -25 -47 -57 -57 -71 -9 -14 -37 -48 -63 -75 -25
-28 -61 -68 -78 -90 -17 -23 -36 -46 -42 -53 -5 -7 -16 -19 -22 -27 -7 -8 -13
-18 -13 -22 0 -4 -12 -19 -27 -34 -16 -15 -53 -60 -83 -100 -30 -40 -61 -78
-67 -85 -7 -8 -13 -18 -13 -24 0 -6 -4 -11 -8 -11 -5 0 -18 -17 -30 -37 -12
-21 -31 -50 -44 -65 -13 -14 -32 -41 -43 -59 -11 -18 -28 -45 -37 -59 -9 -14
-25 -40 -34 -58 -9 -19 -23 -36 -31 -39 -7 -3 -13 -11 -13 -19 0 -8 -4 -14
-10 -14 -5 0 -10 -5 -10 -12 0 -6 -7 -19 -15 -29 -19 -20 -113 -177 -168 -279
-22 -41 -43 -77 -47 -80 -4 -3 -27 -45 -52 -95 -65 -129 -82 -160 -90 -163 -5
-2 -8 -9 -8 -16 0 -18 -24 -66 -32 -66 -5 0 -8 -6 -8 -13 0 -7 -9 -32 -20 -55
-11 -22 -20 -46 -20 -52 0 -5 -4 -10 -10 -10 -5 0 -10 -6 -10 -13 0 -7 -8 -28
-19 -47 -10 -19 -42 -91 -71 -160 -29 -69 -63 -145 -75 -170 -13 -25 -26 -59
-30 -77 -3 -18 -15 -50 -25 -71 -21 -43 -42 -100 -67 -177 -8 -27 -27 -81 -40
-120 -29 -81 -56 -171 -83 -270 -10 -38 -23 -83 -29 -100 -24 -71 -87 -328
-97 -400 -3 -22 -9 -49 -14 -60 -5 -11 -11 -36 -15 -55 -3 -19 -12 -69 -19
-110 -36 -197 -73 -438 -81 -530 -7 -84 -24 -244 -36 -345 -5 -44 -12 -325
-15 -625 -6 -528 0 -737 26 -915 5 -33 21 -159 35 -280 15 -121 31 -251 35
-290 5 -38 23 -137 40 -220 17 -82 35 -170 40 -195 16 -81 45 -200 81 -330 6
-19 16 -64 24 -100 8 -36 23 -90 34 -120 12 -30 21 -63 21 -72 0 -10 4 -18 9
-18 5 0 11 -17 15 -39 6 -37 48 -176 66 -216 17 -39 90 -231 90 -238 0 -4 10
-29 21 -55 12 -26 28 -63 36 -82 8 -19 18 -43 23 -52 6 -10 10 -26 10 -36 0
-9 11 -34 25 -54 14 -20 25 -41 25 -46 0 -4 11 -31 25 -59 13 -28 27 -63 31
-77 3 -14 12 -30 20 -37 8 -6 14 -17 14 -24 0 -24 206 -417 222 -423 4 -2 8
-12 8 -23 0 -10 5 -19 10 -19 6 0 10 -7 10 -16 0 -16 38 -76 52 -82 4 -2 8
-10 8 -17 0 -15 38 -78 64 -108 9 -9 16 -23 16 -30 0 -6 18 -34 40 -62 22 -27
40 -54 40 -58 0 -8 56 -93 70 -107 3 -3 14 -21 24 -40 28 -50 125 -184 137
-188 5 -2 9 -10 9 -17 0 -8 6 -20 13 -27 11 -11 37 -46 79 -103 4 -5 29 -38
55 -72 27 -34 64 -82 83 -108 31 -41 206 -248 253 -300 10 -11 37 -44 60 -74
44 -57 592 -609 668 -673 24 -20 94 -80 155 -132 61 -53 114 -96 118 -96 4 0
21 -16 38 -36 17 -20 58 -53 89 -75 32 -22 71 -51 86 -65 37 -35 140 -114 148
-114 3 0 20 -13 38 -30 18 -16 38 -30 45 -30 6 0 12 -4 12 -10 0 -5 7 -10 15
-10 8 0 15 -4 15 -9 0 -5 24 -24 52 -42 29 -18 55 -36 58 -39 11 -13 99 -70
108 -70 6 0 12 -4 14 -8 2 -4 20 -18 41 -31 20 -12 37 -27 37 -32 0 -5 9 -9
19 -9 11 0 21 -3 23 -8 5 -12 100 -72 115 -72 7 0 13 -4 13 -9 0 -5 9 -13 21
-16 11 -4 55 -29 97 -56 42 -27 93 -57 112 -67 19 -9 37 -19 40 -22 3 -3 75
-40 160 -84 85 -43 157 -81 160 -85 5 -5 41 -22 172 -80 26 -12 52 -21 58 -21
5 0 10 -4 10 -8 0 -4 17 -14 38 -21 20 -8 64 -27 98 -42 34 -16 71 -29 82 -29
12 0 22 -3 22 -7 0 -8 48 -33 63 -33 9 0 91 -34 119 -50 10 -6 26 -10 36 -10
10 0 22 -4 28 -8 14 -13 121 -50 182 -62 28 -7 52 -15 52 -19 0 -8 136 -51
159 -51 6 0 30 -8 54 -19 47 -21 353 -103 467 -125 41 -8 100 -22 130 -31 30
-9 80 -20 110 -25 30 -5 93 -16 140 -25 47 -9 105 -18 130 -20 25 -2 68 -9 95
-15 28 -6 84 -15 125 -20 41 -5 147 -18 235 -29 280 -34 892 -57 948 -35 15 5
18 14 13 37 -3 16 -6 285 -6 597 l0 567 -172 7 c-351 14 -622 35 -828 66 -80
11 -175 25 -211 29 -37 5 -72 12 -78 16 -7 4 -47 13 -89 20 -42 7 -130 24
-194 38 -64 15 -127 28 -140 31 -20 4 -64 15 -225 60 -23 6 -45 15 -49 19 -4
4 -16 7 -26 7 -18 0 -275 82 -313 100 -41 20 -180 70 -192 70 -7 0 -21 4 -31
9 -32 17 -127 58 -152 66 -14 4 -36 16 -50 25 -14 10 -46 25 -72 34 -26 8 -56
20 -65 25 -10 5 -49 25 -88 44 -38 18 -80 39 -92 45 -13 7 -32 17 -44 23 -133
68 -214 111 -236 127 -16 10 -63 38 -105 62 -43 24 -78 48 -78 52 0 4 -6 8
-13 8 -13 0 -226 134 -237 149 -3 4 -30 22 -60 41 -70 44 -131 90 -148 113 -7
9 -20 17 -28 17 -8 0 -22 7 -31 15 -88 78 -110 95 -126 100 -9 4 -17 11 -17
16 0 5 -7 9 -15 9 -8 0 -15 4 -15 9 0 5 -32 35 -72 65 -86 68 -177 146 -234
204 -23 23 -45 42 -50 42 -8 0 -193 180 -357 349 -124 126 -130 131 -139 131
-4 0 -8 6 -8 13 0 6 -22 35 -48 63 -26 28 -67 74 -92 104 -25 30 -65 77 -90
106 -25 28 -67 80 -95 114 -27 34 -54 67 -60 73 -5 7 -17 25 -25 39 -8 15 -29
44 -47 65 -48 58 -103 132 -103 139 0 4 -23 35 -50 70 -27 35 -50 66 -50 69 0
3 -12 24 -27 48 -16 23 -30 47 -33 52 -3 6 -31 50 -62 98 -32 48 -58 90 -58
93 0 3 -18 32 -40 64 -22 32 -77 132 -122 222 -45 90 -85 165 -88 168 -3 3
-10 16 -16 30 -6 14 -22 50 -36 80 -14 30 -29 65 -33 78 -3 12 -11 22 -16 22
-5 0 -9 6 -9 13 0 7 -9 29 -20 50 -11 20 -20 43 -20 51 0 7 -16 48 -35 90 -19
43 -35 82 -35 88 0 5 -7 26 -16 46 -31 71 -32 74 -109 297 -9 28 -25 79 -35
115 -10 36 -25 85 -34 110 -20 55 -52 181 -71 275 -7 39 -23 108 -35 155 -12
47 -24 94 -26 105 -5 22 -24 146 -68 430 -39 255 -51 453 -53 905 -2 444 10
704 48 998 6 48 12 107 14 132 2 25 11 79 19 120 9 41 20 104 25 140 5 36 19
106 31 155 12 50 44 182 71 294 27 113 53 209 57 215 5 6 14 36 21 66 12 49
38 130 96 295 10 28 23 61 30 75 7 14 25 61 40 105 14 44 40 108 56 143 16 34
29 64 29 66 0 14 174 371 212 436 33 56 125 223 169 308 13 23 30 50 38 60 19
21 38 51 48 72 4 8 13 21 20 28 7 7 13 20 13 28 0 8 5 14 10 14 6 0 10 7 10
15 0 8 4 15 9 15 5 0 14 14 21 30 7 17 16 30 21 30 5 0 9 9 9 20 0 11 7 20 15
20 8 0 15 5 15 11 0 10 48 79 63 90 4 3 17 23 29 45 11 21 27 43 34 47 13 7
29 29 79 105 17 26 49 64 67 81 10 8 18 19 18 24 0 8 8 19 55 71 17 19 41 48
54 65 13 17 38 46 55 64 17 18 42 46 56 63 99 122 393 423 591 604 51 47 107
99 125 116 18 17 47 42 66 56 18 15 53 45 78 67 24 23 49 41 55 41 5 0 20 11
32 24 12 13 60 52 105 86 46 35 85 67 86 72 2 4 8 8 14 8 6 0 51 31 102 68 50
38 138 100 196 138 58 38 111 75 118 82 7 6 17 12 22 12 5 0 15 6 22 13 8 6
38 25 68 41 30 17 64 38 74 48 11 10 26 18 33 18 13 0 62 27 73 40 13 15 524
270 542 270 7 0 27 9 43 20 17 11 36 20 43 20 7 0 43 14 80 31 77 34 91 40
150 63 185 70 193 73 247 86 28 7 64 20 80 30 17 9 52 20 79 23 26 4 60 13 74
21 26 13 75 26 247 65 44 10 105 26 136 35 119 35 610 117 789 131 41 4 91 11
110 15 34 9 159 15 515 26 l180 5 3 589 2 590 -192 -1 c-106 -1 -274 -6 -373
-10z"/>
        <path d="M9416 17032 c-3 -5 -6 -270 -6 -588 l-1 -579 148 -7 c81 -3 229 -9
327 -13 98 -4 190 -11 203 -16 13 -5 45 -9 71 -9 50 0 292 -31 427 -54 44 -8
123 -22 175 -31 52 -9 104 -18 115 -20 11 -1 65 -14 119 -29 54 -14 111 -26
126 -26 16 0 31 -4 34 -9 3 -5 20 -11 38 -14 35 -5 133 -31 183 -48 17 -6 48
-15 70 -20 22 -5 63 -18 90 -28 28 -10 97 -33 155 -51 58 -18 109 -37 114 -42
6 -4 18 -8 27 -8 17 0 31 -6 107 -44 19 -9 40 -16 48 -16 8 0 14 -4 14 -9 0
-5 10 -11 23 -14 40 -10 110 -38 197 -79 214 -102 255 -123 258 -130 2 -4 10
-8 17 -8 8 0 40 -15 72 -34 32 -18 76 -41 98 -51 22 -10 54 -28 70 -40 17 -12
48 -30 70 -40 22 -11 42 -22 45 -26 3 -4 32 -22 65 -40 33 -18 62 -35 65 -39
3 -4 21 -16 40 -26 19 -11 63 -38 98 -62 35 -23 65 -42 68 -42 2 0 50 -35 107
-77 57 -43 116 -87 132 -98 16 -11 36 -27 44 -36 9 -9 33 -26 54 -37 21 -11
44 -27 50 -35 14 -17 163 -137 170 -137 3 0 27 -21 54 -47 27 -27 66 -63 88
-81 44 -37 186 -168 299 -274 39 -38 73 -68 76 -68 3 -1 20 -20 38 -43 18 -23
84 -94 146 -157 61 -63 151 -162 199 -220 47 -58 102 -123 121 -145 19 -22 36
-44 36 -50 0 -5 21 -30 46 -55 25 -25 65 -74 90 -110 24 -36 58 -83 75 -105
47 -62 190 -274 234 -346 6 -9 28 -43 49 -75 21 -32 48 -77 59 -99 12 -22 35
-62 52 -90 17 -27 37 -63 45 -80 8 -16 17 -32 20 -35 3 -3 18 -30 33 -60 15
-30 32 -62 37 -70 5 -8 30 -60 56 -115 26 -55 50 -108 55 -117 5 -10 9 -22 9
-27 0 -6 11 -26 24 -46 14 -20 30 -53 37 -73 13 -42 83 -212 105 -255 8 -16
14 -39 14 -51 0 -12 4 -26 8 -31 10 -12 37 -87 47 -130 4 -16 10 -32 14 -35 3
-3 17 -43 31 -90 13 -47 27 -92 31 -100 11 -25 80 -282 103 -385 3 -11 14 -60
25 -110 68 -304 125 -722 152 -1115 12 -175 5 -817 -11 -985 -5 -49 -13 -148
-19 -219 -7 -71 -18 -161 -25 -200 -8 -39 -17 -97 -20 -129 -7 -64 -26 -174
-55 -312 -11 -49 -26 -126 -34 -170 -17 -89 -67 -279 -90 -340 -8 -22 -22 -67
-31 -100 -29 -104 -87 -279 -107 -319 -10 -22 -19 -47 -19 -56 0 -9 -4 -20 -9
-26 -5 -5 -19 -40 -31 -79 -24 -72 -39 -110 -96 -232 -19 -40 -34 -77 -34 -83
0 -5 -14 -32 -30 -58 -16 -27 -30 -55 -30 -62 0 -6 -14 -37 -32 -68 -17 -32
-37 -70 -45 -87 -8 -16 -18 -38 -23 -47 -5 -9 -27 -50 -48 -90 -22 -40 -54
-96 -71 -123 -17 -27 -31 -52 -31 -57 0 -10 -78 -138 -95 -154 -7 -8 -19 -27
-27 -44 -7 -16 -16 -30 -20 -30 -4 0 -15 -17 -24 -37 -10 -21 -30 -54 -46 -74
-15 -20 -28 -42 -28 -47 0 -6 -6 -15 -13 -19 -15 -9 -99 -120 -118 -154 -7
-13 -17 -29 -23 -35 -6 -6 -22 -25 -36 -43 -14 -18 -31 -39 -37 -46 -7 -8 -13
-19 -13 -25 0 -6 -18 -28 -40 -50 -22 -22 -40 -42 -40 -46 0 -6 -21 -31 -121
-146 -27 -31 -68 -80 -92 -109 -102 -126 -634 -658 -659 -659 -5 0 -8 -6 -8
-12 0 -7 -26 -31 -56 -53 -31 -22 -66 -49 -78 -60 -13 -11 -47 -40 -76 -65
-29 -25 -68 -60 -87 -78 -18 -17 -36 -32 -39 -32 -6 0 -184 -129 -202 -147 -8
-8 -27 -20 -43 -28 -16 -9 -29 -20 -29 -25 0 -6 -5 -10 -11 -10 -11 0 -92 -60
-97 -72 -2 -5 -12 -8 -23 -8 -10 0 -19 -4 -19 -9 0 -5 -20 -20 -45 -32 -25
-12 -53 -30 -63 -38 -9 -9 -34 -25 -54 -36 -21 -11 -38 -23 -38 -27 0 -4 -19
-16 -42 -27 -24 -11 -60 -31 -81 -45 -21 -14 -40 -26 -42 -26 -2 0 -24 -14
-48 -30 -25 -17 -50 -30 -56 -30 -13 0 -80 -37 -102 -56 -8 -8 -23 -14 -33
-14 -9 0 -19 -7 -22 -15 -4 -8 -17 -15 -29 -15 -13 0 -25 -3 -27 -7 -1 -5 -19
-15 -38 -24 -19 -9 -101 -48 -183 -88 -81 -39 -151 -71 -156 -71 -5 0 -39 -14
-74 -30 -36 -17 -74 -30 -84 -30 -10 0 -32 -9 -50 -20 -18 -10 -58 -26 -90
-35 -32 -9 -71 -23 -88 -30 -16 -8 -68 -26 -115 -40 -47 -14 -101 -32 -120
-39 -19 -8 -55 -19 -80 -26 -25 -7 -65 -18 -90 -25 -47 -14 -207 -57 -300 -80
-30 -8 -73 -16 -95 -19 -22 -3 -71 -12 -110 -21 -131 -30 -463 -77 -665 -95
-201 -18 -552 -40 -642 -40 l-88 0 0 -598 c0 -363 4 -602 9 -607 12 -12 544
-2 726 14 153 13 439 47 510 61 28 6 113 19 190 30 77 10 156 23 175 29 19 5
62 15 95 21 64 13 257 56 315 70 154 40 277 74 340 95 41 13 98 29 125 35 28
6 59 14 70 19 11 5 56 21 100 36 44 15 87 30 95 35 9 4 30 11 48 15 18 3 32
11 32 16 0 5 10 9 23 9 13 0 27 4 33 9 5 5 36 18 69 29 33 11 107 42 165 67
58 26 114 49 125 52 11 3 80 34 153 69 73 35 137 64 142 64 4 0 10 4 12 8 2 5
50 32 108 60 110 54 201 103 210 113 3 3 21 11 40 19 19 8 44 22 54 32 11 10
25 18 31 18 7 0 25 11 41 25 16 14 45 32 64 41 19 10 37 20 40 23 3 3 19 13
35 21 38 19 89 53 93 63 2 4 12 7 23 7 10 0 19 4 19 9 0 5 38 33 84 61 47 29
92 60 102 71 9 10 22 19 27 19 6 0 33 17 61 39 28 21 103 76 166 123 63 47
127 96 142 110 14 14 41 36 60 49 50 36 58 42 86 71 15 15 48 42 73 60 141
102 577 515 784 745 44 48 92 101 107 116 16 16 28 33 28 38 0 5 3 9 8 9 4 0
29 28 56 63 27 34 63 76 80 92 18 17 52 57 78 90 25 33 56 71 69 86 30 31 109
136 109 144 0 3 8 13 18 23 25 26 86 102 96 121 5 9 12 18 15 21 3 3 11 12 16
21 37 58 95 146 102 154 43 52 73 95 73 104 0 6 5 11 10 11 6 0 14 10 19 23 5
12 32 57 60 100 28 43 51 82 51 87 0 6 3 10 8 10 4 0 12 8 17 19 34 64 59 107
64 111 12 10 31 50 31 65 0 8 3 15 8 15 4 0 12 9 17 19 26 50 64 119 83 151
12 19 33 60 47 90 15 30 35 66 46 81 10 15 19 31 19 37 0 10 34 85 50 112 14
23 100 208 100 215 0 3 9 27 21 53 11 26 24 57 30 70 5 12 13 32 19 45 37 87
93 225 97 242 2 11 8 29 13 40 29 68 61 159 67 187 3 18 15 55 25 83 44 118
138 458 138 501 0 11 4 24 9 30 4 5 18 54 30 109 12 55 27 110 32 123 5 13 9
44 9 70 0 27 4 52 9 57 4 6 13 37 20 70 11 60 18 103 47 310 8 61 19 142 25
180 5 39 16 144 24 235 7 91 19 224 26 295 7 76 13 305 13 555 1 418 -6 574
-40 870 -7 69 -16 154 -19 190 -3 36 -9 92 -15 125 -5 33 -17 110 -25 170 -8
61 -24 160 -36 220 -11 61 -24 133 -29 160 -9 55 -43 203 -65 280 -7 28 -21
75 -29 105 -8 30 -18 79 -22 108 -4 28 -9 52 -13 52 -4 0 -12 26 -20 58 -7 31
-19 71 -26 87 -21 47 -45 124 -45 145 0 10 -4 21 -9 24 -5 3 -12 21 -15 39 -3
19 -15 51 -25 73 -10 21 -26 66 -36 99 -17 59 -38 115 -54 145 -5 9 -12 30
-16 48 -3 18 -10 32 -13 32 -4 0 -13 18 -20 40 -7 22 -26 69 -42 104 -17 34
-30 67 -30 72 0 5 -13 36 -30 69 -16 33 -30 66 -30 73 0 6 -4 12 -10 12 -5 0
-10 4 -10 9 0 18 -63 151 -72 151 -4 0 -8 6 -8 14 0 12 -60 135 -124 251 -9
17 -16 36 -16 43 0 6 -4 12 -10 12 -5 0 -10 9 -10 20 0 11 -4 20 -10 20 -5 0
-10 5 -10 10 0 9 -35 65 -50 80 -5 5 -33 55 -58 105 -9 17 -19 32 -22 35 -10
7 -90 141 -90 150 0 5 -3 10 -7 12 -10 4 -73 96 -73 106 0 4 -18 30 -40 57
-22 28 -40 54 -40 58 0 4 -4 13 -10 20 -5 7 -26 32 -46 57 -19 25 -41 53 -49
62 -7 9 -19 27 -26 40 -6 13 -15 25 -18 28 -3 3 -31 39 -62 81 -31 41 -63 82
-71 90 -7 8 -25 30 -38 49 -13 19 -29 41 -35 48 -5 6 -20 24 -32 40 -13 15
-44 52 -70 83 -27 30 -59 69 -73 85 -14 16 -35 43 -48 59 -41 53 -242 262
-471 488 -260 256 -281 277 -287 277 -3 0 -42 33 -88 73 -45 39 -99 86 -120
102 -43 34 -174 143 -194 162 -7 7 -16 13 -20 13 -4 0 -23 14 -42 31 -72 64
-117 99 -129 99 -6 0 -11 4 -11 8 0 4 -18 19 -40 32 -22 14 -40 28 -40 33 0 4
-4 7 -10 7 -8 0 -69 42 -121 84 -8 7 -31 21 -50 32 -19 10 -54 35 -79 54 -46
36 -62 47 -117 75 -18 9 -37 23 -44 31 -6 8 -17 14 -25 14 -7 0 -19 6 -26 13
-13 12 -81 51 -125 72 -13 5 -23 13 -23 18 0 4 -7 7 -15 7 -8 0 -15 4 -15 9 0
5 -15 14 -32 20 -18 7 -51 23 -72 38 -22 14 -76 45 -120 68 -45 24 -107 57
-140 74 -32 17 -64 31 -71 31 -7 0 -15 3 -17 8 -1 4 -32 21 -68 38 -152 73
-176 84 -183 84 -4 0 -37 13 -72 30 -35 16 -86 39 -113 49 -28 11 -67 29 -88
41 -21 11 -44 20 -50 20 -6 0 -37 11 -68 25 -31 14 -67 25 -81 25 -13 0 -27 4
-30 10 -3 5 -38 19 -78 31 -104 31 -149 45 -187 62 -85 37 -319 100 -675 183
-38 8 -83 20 -100 25 -29 8 -228 44 -420 75 -126 20 -492 62 -600 69 -49 3
-112 8 -139 11 -102 10 -584 15 -590 6z"/>
        <path d="M8660 13120 c-36 -4 -121 -13 -190 -19 -107 -10 -196 -23 -405 -61
-64 -11 -258 -61 -277 -71 -10 -5 -27 -9 -37 -9 -11 0 -22 -4 -25 -9 -3 -5
-18 -11 -33 -14 -16 -3 -59 -17 -98 -31 -38 -14 -77 -26 -85 -26 -8 0 -42 -14
-75 -30 -33 -17 -64 -30 -69 -30 -10 0 -140 -60 -221 -102 -22 -11 -71 -37
-110 -56 -38 -20 -72 -39 -75 -43 -3 -3 -14 -9 -26 -13 -11 -3 -29 -14 -40
-24 -22 -19 -44 -32 -107 -65 -23 -11 -44 -24 -47 -28 -3 -3 -30 -23 -60 -43
-81 -54 -247 -183 -374 -291 -101 -85 -401 -388 -471 -476 -33 -41 -72 -87
-87 -102 -16 -16 -28 -32 -28 -35 0 -4 -16 -24 -35 -46 -19 -21 -35 -41 -35
-45 0 -3 -10 -17 -23 -31 -12 -14 -50 -68 -84 -120 -35 -52 -72 -107 -83 -122
-11 -14 -20 -33 -20 -42 0 -9 -3 -16 -7 -16 -11 0 -51 -66 -105 -170 -25 -47
-49 -94 -55 -105 -41 -76 -153 -329 -153 -344 0 -7 -11 -36 -24 -64 -14 -29
-32 -79 -41 -112 -9 -33 -21 -68 -26 -77 -4 -9 -20 -68 -35 -130 -15 -62 -36
-149 -46 -193 -20 -84 -33 -153 -48 -270 -5 -38 -16 -117 -25 -175 -20 -144
-21 -753 0 -930 26 -224 34 -284 49 -355 58 -273 76 -347 87 -359 5 -6 9 -20
9 -33 0 -13 4 -31 9 -41 5 -9 19 -51 31 -92 11 -41 28 -91 36 -110 9 -19 22
-55 31 -80 8 -25 28 -74 45 -110 47 -104 90 -193 101 -215 6 -11 30 -58 55
-105 54 -104 94 -170 105 -170 4 0 7 -4 7 -9 0 -7 60 -114 88 -157 37 -56 208
-278 239 -309 6 -6 35 -41 64 -76 55 -65 263 -283 333 -348 22 -20 69 -63 104
-96 35 -33 71 -64 80 -69 9 -5 27 -19 38 -32 12 -13 26 -24 32 -24 6 0 15 -6
19 -14 4 -7 27 -23 50 -35 23 -11 46 -27 50 -34 4 -7 24 -24 43 -37 19 -13 37
-27 40 -30 9 -11 131 -90 139 -90 5 0 14 -7 21 -15 7 -8 24 -21 39 -28 41 -21
122 -68 163 -94 21 -12 42 -23 47 -23 5 0 11 -3 13 -8 3 -7 130 -72 141 -72 2
0 47 -20 99 -44 52 -25 106 -48 121 -51 15 -4 44 -16 64 -26 21 -10 43 -19 50
-19 7 0 21 -4 31 -9 9 -6 64 -24 122 -42 58 -17 112 -35 121 -39 8 -4 46 -15
85 -24 38 -9 98 -23 134 -31 86 -21 266 -52 415 -72 160 -21 760 -30 935 -13
166 15 275 29 330 39 311 62 412 85 442 102 10 5 28 9 40 9 13 0 50 12 83 26
33 14 78 30 100 35 21 6 55 17 75 26 59 26 74 31 115 44 22 7 47 19 55 25 8 7
29 16 45 20 17 4 42 15 57 25 14 11 32 19 40 19 7 0 24 9 38 20 14 11 33 20
42 20 9 0 20 5 23 10 4 6 28 20 53 31 80 35 91 42 111 61 11 10 26 18 33 18 8
0 29 13 48 30 19 16 40 29 45 30 6 0 34 18 63 40 29 22 59 40 67 40 8 0 15 5
15 10 0 6 5 10 11 10 6 0 20 11 30 24 10 13 30 27 44 30 14 4 25 11 25 16 0 6
6 10 13 10 7 0 31 18 52 40 21 22 43 40 47 40 10 0 50 33 94 78 18 17 35 32
38 32 10 0 65 52 254 241 183 182 242 244 242 254 0 3 11 18 25 33 109 117
155 174 192 236 10 16 30 42 46 58 15 16 27 35 27 43 0 7 6 20 13 27 19 20 87
127 87 136 0 5 9 17 20 27 11 10 20 22 20 28 0 5 14 29 30 54 17 24 30 48 30
53 0 9 28 62 79 153 11 21 21 44 21 52 0 8 4 15 8 15 4 0 14 17 21 38 16 49
38 102 76 187 17 39 38 97 45 130 8 33 19 69 26 80 14 22 64 213 64 244 0 11
7 26 15 35 8 8 15 25 15 38 0 13 6 52 14 88 8 36 20 99 26 140 7 41 16 89 21
105 18 66 34 387 33 690 -1 310 -9 442 -39 610 -41 233 -68 366 -76 371 -5 3
-9 20 -9 39 0 19 -4 37 -10 40 -5 3 -10 19 -10 34 0 15 -12 56 -26 92 -14 35
-32 89 -40 119 -16 60 -20 73 -51 140 -32 67 -57 130 -73 178 -7 23 -17 42
-22 42 -4 0 -8 8 -8 18 0 10 -4 22 -9 28 -12 13 -91 164 -91 174 0 5 -13 29
-30 53 -16 25 -30 49 -30 54 0 6 -9 18 -20 28 -11 10 -20 22 -20 27 0 5 -13
29 -30 53 -16 24 -30 47 -30 52 -1 4 -14 24 -30 43 -17 19 -30 38 -30 42 0 4
-8 16 -17 26 -10 11 -26 32 -36 48 -30 51 -104 145 -177 225 -14 15 -38 45
-55 65 -78 98 -152 178 -252 274 -109 106 -245 230 -251 230 -6 0 -91 72 -126
107 -18 17 -53 44 -77 60 -25 15 -65 45 -90 66 -26 20 -49 37 -52 37 -3 0 -35
20 -70 45 -36 25 -68 45 -72 45 -4 0 -39 21 -79 48 -61 41 -143 87 -223 126
-13 6 -23 14 -23 19 0 4 -7 7 -15 7 -8 0 -40 14 -70 30 -30 17 -64 30 -74 30
-10 0 -24 6 -30 14 -7 8 -34 21 -62 30 -28 9 -79 30 -115 46 -35 17 -72 30
-82 30 -10 0 -35 9 -57 20 -22 11 -49 20 -62 20 -12 0 -25 5 -28 10 -3 6 -17
10 -31 10 -14 0 -35 6 -47 14 -12 8 -51 20 -87 26 -36 7 -85 16 -110 20 -25 4
-72 15 -105 23 -106 26 -157 35 -280 47 -66 6 -140 16 -165 21 -56 13 -631 20
-720 9z"/>
    </g>
</svg>
